# xmcd
#
# Track frame offsets:
#	150
#	20482
#	35922
#	51644
#	65593
#	85628
#	105832
#	118183
#	137747
#	160383
#	178105
#	190807
#
# Disc length: 2737 seconds
#
# Revision: 1
# Processed by: cddbd v1.5.2PL0 Copyright (c) Steve Scherf et al.
# Submitted via: audiograbber 1.83.01
#
DISCID=a90aaf0c
DTITLE=Wraygunn - eclesiastes 1.11
DYEAR=2004
DGENRE=Rock
TTITLE0=Soul City
TTITLE1=Drunk or stoned
TTITLE2=Keep on prayin'
TTITLE3=Juice
TTITLE4=Don't you know?
TTITLE5=I am your lover man
TTITLE6=Hip
TTITLE7=How long, how long?
TTITLE8=There but for the grace of god go i
TTITLE9=Sometimes i miss you
TTITLE10=She's a speed freak
TTITLE11=All night long
EXTD=Portugal
EXTT0=
EXTT1=
EXTT2=
EXTT3=
EXTT4=
EXTT5=
EXTT6=
EXTT7=
EXTT8=
EXTT9=
EXTT10=
EXTT11=
PLAYORDER=
